# xmcd
#
# Track frame offsets: 
#        150
#        22294
#        43278
#        61905
#        78356
#        94581
#        119712
#        139846
#        171699
#        198877
#        219089
#        236976
#        263324
#        283314
#        303886
#        321826
#
# Disc length: 4629 seconds
#
# Revision: 1
# Processed by: cddbd v1.5.2PL0 Copyright (c) Steve Scherf et al.
# Submitted via: ExactAudioCopy v1.0b2
#
DISCID=ef121310
DTITLE=Various Artist - Relax Music Vol.2 [CD2)
DYEAR=2009
DGENRE=Pop
TTITLE0=Oliver Shanti and Friends - Amitabha
TTITLE1=Yanni - Rites Of Passage
TTITLE2=The Kazu Matsui Project - G Minor Over The Mosques
TTITLE3=La Esperanza - Gabriella's Lullaby
TTITLE4=G.E.N.E. - Forest Love
TTITLE5=Medhi - Flight Of The Angeles
TTITLE6=Rue Du Soleil - Missing
TTITLE7=Shulman - The Unexpected Visitor
TTITLE8=Lauge and Baba Gnohm - The Perfect Stranger
TTITLE9=Tosca - Ocean Beat
TTITLE10=Parov Stelar - Autumn Song
TTITLE11=David Sanborn - Cristo Redentor
TTITLE12=Kenny G - Sabor A Mi
TTITLE13=Interface - Lands Of Time
TTITLE14=Nikos - Fantasia
TTITLE15=Steen Thottrup - El Alba
EXTD=
EXTT0=
EXTT1=
EXTT2=
EXTT3=
EXTT4=
EXTT5=
EXTT6=
EXTT7=
EXTT8=
EXTT9=
EXTT10=
EXTT11=
EXTT12=
EXTT13=
EXTT14=
EXTT15=
PLAYORDER=
